<?xml version="1.0" encoding="UTF-8"?>
<!DOCTYPE svg PUBLIC "-//W3C//DTD SVG 1.0//EN" "http://www.w3.org/TR/2001/REC-SVG-20010904/DTD/svg10.dtd">
<!-- Creator: CorelDRAW X7 -->
<svg xmlns="http://www.w3.org/2000/svg" xml:space="preserve" width="250px" height="250px" version="1.0" style="shape-rendering:geometricPrecision; text-rendering:geometricPrecision; image-rendering:optimizeQuality; fill-rule:evenodd; clip-rule:evenodd"
viewBox="0 0 15286 15286"
 xmlns:xlink="http://www.w3.org/1999/xlink">
 <defs>
  <style type="text/css">
   <![CDATA[
    .fil1 {fill:#44DFD7}
    .fil0 {fill:#0091B5}
   ]]>
  </style>
 </defs>
 <g id="Layer_x0020_1">
  <metadata id="CorelCorpID_0Corel-Layer"/>
  <path class="fil0" d="M15286 0c-4222,0 -7643,3422 -7643,7643l-7643 0 0 7643c4221,0 7643,-3422 7643,-7643l7643 0 0 -7643z"/>
  <path class="fil1" d="M2871 0c-1585,0 -2871,1285 -2871,2870 0,1586 1286,2871 2871,2871 1585,0 2870,-1285 2870,-2871 0,-1585 -1285,-2870 -2870,-2870z"/>
  <path class="fil1" d="M12415 9545c-1585,0 -2871,1285 -2871,2870 0,1585 1286,2871 2871,2871 1585,0 2870,-1286 2870,-2871 0,-1585 -1285,-2870 -2870,-2870z"/>
 </g>
</svg>
